<svg width="420" height="88" viewBox="0 0 420 88" fill="none" xmlns="http://www.w3.org/2000/svg" role="img" aria-labelledby="title desc">
  <title id="title">Canada Life Toolkit horizontal logo</title>
  <desc id="desc">Flat logo with teal toolbox, checklist, maple leaf, and dark navy text.</desc>
  <rect width="420" height="88" fill="#FFFFFF"/>
  <g transform="translate(8 12)">
    <rect x="0" y="0" width="64" height="64" rx="16" fill="#ECFDF5"/>
    <path d="M20 26h24c3.314 0 6 2.686 6 6v15c0 3.314-2.686 6-6 6H20c-3.314 0-6-2.686-6-6V32c0-3.314 2.686-6 6-6Z" fill="#0F766E"/>
    <path d="M25 26v-4c0-2.209 1.791-4 4-4h6c2.209 0 4 1.791 4 4v4" stroke="#0F766E" stroke-width="3.5" stroke-linecap="round"/>
    <rect x="20" y="33" width="24" height="15" rx="3" fill="#FFFFFF"/>
    <path d="M24 37l2.3 2.3 4.9-5" stroke="#0F766E" stroke-width="2.5" stroke-linecap="round" stroke-linejoin="round"/>
    <path d="M34.5 37h5.5" stroke="#0B1F3A" stroke-width="2.2" stroke-linecap="round"/>
    <path d="M34.5 43h5.5" stroke="#0B1F3A" stroke-width="2.2" stroke-linecap="round"/>
    <path d="M49 10l1.9 6.1 6.1-1.9-4.2 5 5.9 2.4-6.4.8.5 6.4-3.8-5.2-3.8 5.2.5-6.4-6.4-.8 5.9-2.4-4.2-5 6.1 1.9L49 10Z" fill="#14B8A6"/>
  </g>
  <g transform="translate(88 20)">
    <text x="0" y="24" fill="#0B1F3A" font-family="system-ui, -apple-system, BlinkMacSystemFont, 'Segoe UI', sans-serif" font-size="25" font-weight="800" letter-spacing="-0.8">Canada Life Toolkit</text>
    <text x="0" y="52" fill="#0F766E" font-family="system-ui, -apple-system, BlinkMacSystemFont, 'Segoe UI', 'Microsoft YaHei', sans-serif" font-size="17" font-weight="700" letter-spacing="0.4">加拿大生活工具箱</text>
  </g>
</svg>
