<svg width="128" height="128" viewBox="0 0 128 128" fill="none" xmlns="http://www.w3.org/2000/svg" role="img" aria-labelledby="title desc">
  <title id="title">Newcomer Living square logo</title>
  <desc id="desc">Flat square icon combining a toolbox, checklist, and maple leaf in teal and navy.</desc>
  <rect width="128" height="128" rx="28" fill="#ECFDF5"/>
  <rect x="25" y="46" width="78" height="54" rx="12" fill="#0F766E"/>
  <path d="M44 46v-8c0-4.418 3.582-8 8-8h24c4.418 0 8 3.582 8 8v8" stroke="#0F766E" stroke-width="8" stroke-linecap="round"/>
  <rect x="36" y="58" width="56" height="30" rx="7" fill="#FFFFFF"/>
  <path d="M45 68.5l5 5 10-11" stroke="#0F766E" stroke-width="5" stroke-linecap="round" stroke-linejoin="round"/>
  <path d="M66 67h15" stroke="#0B1F3A" stroke-width="5" stroke-linecap="round"/>
  <path d="M66 79h15" stroke="#0B1F3A" stroke-width="5" stroke-linecap="round"/>
  <path d="M92 18l3.2 10.1 10.1-3.2-6.9 8.3 9.8 4-10.6 1.4.9 10.7-6.5-8.8-6.5 8.8.9-10.7-10.6-1.4 9.8-4-6.9-8.3 10.1 3.2L92 18Z" fill="#14B8A6"/>
</svg>
